<?xml version="1.0" encoding="UTF-8" standalone="no"?>
<svg width="38px" height="38px" viewBox="0 0 38 38" version="1.1" xmlns="http://www.w3.org/2000/svg" xmlns:xlink="http://www.w3.org/1999/xlink">
    <!-- Generator: Sketch 3.8.2 (29753) - http://www.bohemiancoding.com/sketch -->
    <title>1 copy</title>
    <desc>Created with Sketch.</desc>
    <defs></defs>
    <g id="Page-1" stroke="none" stroke-width="1" fill="none" fill-rule="evenodd">
        <g id="Artboard-1-Copy-5" transform="translate(-59.000000, -68.000000)" fill="#b0beca">
            <g id="Group-2" transform="translate(44.000000, 66.000000)">
                <g id="1-copy" transform="translate(15.000000, 2.000000)">
                    <g id="Group">
                        <path d="M19,37.5681818 C29.2549236,37.5681818 37.5681818,29.2549236 37.5681818,19 C37.5681818,8.74507635 29.2549236,0.431818182 19,0.431818182 C8.74507635,0.431818182 0.431818182,8.74507635 0.431818182,19 C0.431818182,29.2549236 8.74507635,37.5681818 19,37.5681818 L19,37.5681818 Z M19,34.9772727 C10.1759959,34.9772727 3.02272727,27.8240041 3.02272727,19 C3.02272727,10.1759959 10.1759959,3.02272727 19,3.02272727 C27.8240041,3.02272727 34.9772727,10.1759959 34.9772727,19 C34.9772727,27.8240041 27.8240041,34.9772727 19,34.9772727 L19,34.9772727 Z" id="Oval-1"></path>
                        <path d="M17.4165567,15.5407042 L20.5834433,15.5407042 L20.5834433,28.2082506 L17.4165567,28.2082506 L17.4165567,15.5407042 Z M16.9679144,11.2390166 C16.9679144,10.7287934 17.1570461,10.2845541 17.535315,9.90628516 C17.9135839,9.52801626 18.3930105,9.33888464 18.9736093,9.33888464 C19.5542081,9.33888464 20.0424315,9.51921944 20.4382943,9.87989444 C20.8341571,10.2405694 21.0320856,10.6936056 21.0320856,11.2390166 C21.0320856,11.7844276 20.8341571,12.2374638 20.4382943,12.5981388 C20.0424315,12.9588138 19.5542081,13.1391486 18.9736093,13.1391486 C18.3930105,13.1391486 17.9135839,12.9500169 17.535315,12.571748 C17.1570461,12.1934791 16.9679144,11.7492398 16.9679144,11.2390166 L16.9679144,11.2390166 Z" id="i"></path>
                    </g>
                </g>
            </g>
        </g>
    </g>
</svg>
