<?xml version="1.0" encoding="UTF-8" standalone="no"?>
<svg width="78px" height="64px" viewBox="0 0 78 64" version="1.1" xmlns="http://www.w3.org/2000/svg" xmlns:xlink="http://www.w3.org/1999/xlink">
    <!-- Generator: Sketch 3.7.2 (28276) - http://www.bohemiancoding.com/sketch -->
    <title>Group</title>
    <desc>Created with Sketch.</desc>
    <defs></defs>
    <g id="Page-1" stroke="none" stroke-width="1" fill="none" fill-rule="evenodd">
        <g id="SVG-icons-product" transform="translate(-61.000000, -496.000000)">
            <g id="Group" transform="translate(61.000000, 496.000000)">
                <path d="M6.134,53.796 L7.161,53.796 L11.074,63 L9.8,63 L8.864,60.738 L4.262,60.738 L3.313,63 L2.078,63 L6.134,53.796 Z M6.628,55.2 L6.602,55.2 L4.691,59.724 L8.448,59.724 L6.628,55.2 Z" id="A" fill="#6F7A84"></path>
                <path d="M37.144,53.796 L39.952,53.796 C40.3333352,53.796 40.7059982,53.8349996 41.07,53.913 C41.4340018,53.9910004 41.7589986,54.1188324 42.045,54.2965 C42.3310014,54.4741676 42.5628324,54.7059986 42.7405,54.992 C42.9181676,55.2780014 43.007,55.6333312 43.007,56.058 C43.007,56.595336 42.8618348,57.0394982 42.5715,57.3905 C42.2811652,57.7415018 41.8890025,57.9906659 41.395,58.138 L41.395,58.164 C41.6896681,58.1900001 41.9648321,58.2658327 42.2205,58.3915 C42.4761679,58.5171673 42.6971657,58.6796657 42.8835,58.879 C43.0698343,59.0783343 43.2149995,59.3101653 43.319,59.5745 C43.4230005,59.8388347 43.475,60.1226652 43.475,60.426 C43.475,60.9373359 43.3688344,61.357665 43.1565,61.687 C42.9441656,62.016335 42.666835,62.278499 42.3245,62.4735 C41.982165,62.668501 41.5965021,62.8049996 41.1675,62.883 C40.7384979,62.9610004 40.3116688,63 39.887,63 L37.144,63 L37.144,53.796 Z M38.236,57.696 L39.744,57.696 C40.0040013,57.696 40.2574988,57.6786668 40.5045,57.644 C40.7515012,57.6093332 40.9746657,57.5378339 41.174,57.4295 C41.3733343,57.3211661 41.5336661,57.169501 41.655,56.9745 C41.7763339,56.779499 41.837,56.5216683 41.837,56.201 C41.837,55.9149986 41.7806672,55.6831676 41.668,55.5055 C41.5553328,55.3278324 41.4058343,55.1870005 41.2195,55.083 C41.0331657,54.9789995 40.8208345,54.9075002 40.5825,54.8685 C40.3441655,54.8294998 40.1036679,54.81 39.861,54.81 L38.236,54.81 L38.236,57.696 Z M38.236,61.986 L40.082,61.986 C40.350668,61.986 40.6171653,61.9578336 40.8815,61.9015 C41.1458347,61.8451664 41.3841656,61.7541673 41.5965,61.6285 C41.8088344,61.5028327 41.9799994,61.3381677 42.11,61.1345 C42.2400007,60.9308323 42.305,60.6816681 42.305,60.387 C42.305,60.0663317 42.2421673,59.7976678 42.1165,59.581 C41.9908327,59.3643323 41.8261677,59.1910007 41.6225,59.061 C41.4188323,58.9309994 41.1848347,58.8400003 40.9205,58.788 C40.6561653,58.7359997 40.3853347,58.71 40.108,58.71 L38.236,58.71 L38.236,61.986 Z" id="B" fill="#6F7A84"></path>
                <path d="M75.592,55.694 C75.3146653,55.3213315 74.9723354,55.0418343 74.565,54.8555 C74.1576646,54.6691657 73.7330022,54.576 73.291,54.576 C72.7796641,54.576 72.3095021,54.679999 71.8805,54.888 C71.4514979,55.096001 71.0810016,55.3754982 70.769,55.7265 C70.4569984,56.0775018 70.2143342,56.484831 70.041,56.9485 C69.8676658,57.412169 69.781,57.8953308 69.781,58.398 C69.781,58.935336 69.8676658,59.435831 70.041,59.8995 C70.2143342,60.363169 70.4548318,60.766165 70.7625,61.1085 C71.0701682,61.450835 71.4384979,61.7216657 71.8675,61.921 C72.2965021,62.1203343 72.7709974,62.22 73.291,62.22 C73.8543361,62.22 74.3569978,62.1095011 74.799,61.8885 C75.2410022,61.6674989 75.626665,61.3490021 75.956,60.933 L76.775,61.622 C76.3589979,62.1766694 75.8585029,62.5839987 75.2735,62.844 C74.6884971,63.1040013 74.0276703,63.234 73.291,63.234 C72.63233,63.234 72.0170029,63.1126679 71.445,62.87 C70.8729971,62.6273321 70.3768354,62.2915021 69.9565,61.8625 C69.5361646,61.4334979 69.2068345,60.9243363 68.9685,60.335 C68.7301655,59.7456637 68.611,59.1000035 68.611,58.398 C68.611,57.7219966 68.7258322,57.0893363 68.9555,56.5 C69.1851678,55.9106637 69.5079979,55.3993355 69.924,54.966 C70.3400021,54.5326645 70.8339971,54.1903346 71.406,53.939 C71.9780029,53.6876654 72.6063299,53.562 73.291,53.562 C73.9150031,53.562 74.5151638,53.6746655 75.0915,53.9 C75.6678362,54.1253345 76.150998,54.4936641 76.541,55.005 L75.592,55.694 Z" id="C" fill="#6F7A84"></path>
                <path d="M52.731,37 L51.613,37 L49.13,30.916 L50.313,30.916 L52.211,35.687 L52.237,35.687 L54.044,30.916 L55.136,30.916 L52.731,37 Z M56.358,35.401 C56.5573343,35.6523346 56.7761655,35.8516659 57.0145,35.999 C57.2528345,36.1463341 57.5539982,36.22 57.918,36.22 C58.0740008,36.22 58.2321659,36.2026668 58.3925,36.168 C58.5528341,36.1333332 58.6979993,36.0770004 58.828,35.999 C58.9580006,35.9209996 59.0619996,35.8235006 59.14,35.7065 C59.2180004,35.5894994 59.257,35.4486675 59.257,35.284 C59.257,35.1193325 59.220167,34.9850005 59.1465,34.881 C59.072833,34.7769995 58.9753339,34.688167 58.854,34.6145 C58.7326661,34.540833 58.5940008,34.4823335 58.438,34.439 C58.2819992,34.3956664 58.1216675,34.3566668 57.957,34.322 C57.6709986,34.261333 57.3980013,34.1920004 57.138,34.114 C56.8779987,34.0359996 56.650501,33.9341673 56.4555,33.8085 C56.260499,33.6828327 56.1045006,33.5203343 55.9875,33.321 C55.8704994,33.1216657 55.812,32.8660016 55.812,32.554 C55.812,32.2593319 55.8769993,31.9993345 56.007,31.774 C56.1370006,31.5486655 56.3103322,31.3623341 56.527,31.215 C56.7436677,31.0676659 56.986332,30.9550004 57.255,30.877 C57.523668,30.7989996 57.8009986,30.76 58.087,30.76 C58.5203355,30.76 58.9211648,30.8466658 59.2895,31.02 C59.6578352,31.1933342 59.945999,31.474998 60.154,31.865 L59.309,32.424 C59.1789993,32.2073322 59.0078344,32.031834 58.7955,31.8975 C58.5831656,31.763166 58.3253348,31.696 58.022,31.696 C57.8833326,31.696 57.7425007,31.7133332 57.5995,31.748 C57.4564993,31.7826668 57.3286672,31.8346663 57.216,31.904 C57.1033328,31.9733337 57.010167,32.0621661 56.9365,32.1705 C56.862833,32.2788339 56.826,32.4023326 56.826,32.541 C56.826,32.6710006 56.8671663,32.7814995 56.9495,32.8725 C57.0318337,32.9635005 57.1444993,33.0436663 57.2875,33.113 C57.4305007,33.1823337 57.5951657,33.2429997 57.7815,33.295 C57.9678343,33.3470003 58.1606657,33.3903332 58.36,33.425 C58.628668,33.4770003 58.8843321,33.5441663 59.127,33.6265 C59.3696679,33.7088337 59.5819991,33.8193326 59.764,33.958 C59.9460009,34.0966674 60.0889995,34.269999 60.193,34.478 C60.2970005,34.686001 60.349,34.9416651 60.349,35.245 C60.349,35.5916684 60.2796674,35.8863321 60.141,36.129 C60.0023326,36.3716679 59.8181678,36.5688326 59.5885,36.7205 C59.3588322,36.8721674 59.0988348,36.9826663 58.8085,37.052 C58.5181652,37.1213337 58.2213348,37.156 57.918,37.156 C57.3979974,37.156 56.9495019,37.0758341 56.5725,36.9155 C56.1954981,36.7551659 55.8553348,36.4583355 55.552,36.025 L56.358,35.401 Z M62.611,35.518 C62.8276677,35.518 63.0118326,35.5938326 63.1635,35.7455 C63.3151674,35.8971674 63.391,36.0813322 63.391,36.298 C63.391,36.5146677 63.3108341,36.6988326 63.1505,36.8505 C62.9901659,37.0021674 62.8103343,37.078 62.611,37.078 C62.4116657,37.078 62.2318341,37.0021674 62.0715,36.8505 C61.9111659,36.6988326 61.831,36.5146677 61.831,36.298 C61.831,36.0813322 61.9068326,35.8971674 62.0585,35.7455 C62.2101674,35.5938326 62.3943322,35.518 62.611,35.518 L62.611,35.518 Z" id="vs." fill="#6F7A84"></path>
                <path d="M18.731,37 L17.613,37 L15.13,30.916 L16.313,30.916 L18.211,35.687 L18.237,35.687 L20.044,30.916 L21.136,30.916 L18.731,37 Z M22.358,35.401 C22.5573343,35.6523346 22.7761655,35.8516659 23.0145,35.999 C23.2528345,36.1463341 23.5539982,36.22 23.918,36.22 C24.0740008,36.22 24.2321659,36.2026668 24.3925,36.168 C24.5528341,36.1333332 24.6979993,36.0770004 24.828,35.999 C24.9580006,35.9209996 25.0619996,35.8235006 25.14,35.7065 C25.2180004,35.5894994 25.257,35.4486675 25.257,35.284 C25.257,35.1193325 25.220167,34.9850005 25.1465,34.881 C25.072833,34.7769995 24.9753339,34.688167 24.854,34.6145 C24.7326661,34.540833 24.5940008,34.4823335 24.438,34.439 C24.2819992,34.3956664 24.1216675,34.3566668 23.957,34.322 C23.6709986,34.261333 23.3980013,34.1920004 23.138,34.114 C22.8779987,34.0359996 22.650501,33.9341673 22.4555,33.8085 C22.260499,33.6828327 22.1045006,33.5203343 21.9875,33.321 C21.8704994,33.1216657 21.812,32.8660016 21.812,32.554 C21.812,32.2593319 21.8769993,31.9993345 22.007,31.774 C22.1370006,31.5486655 22.3103322,31.3623341 22.527,31.215 C22.7436677,31.0676659 22.986332,30.9550004 23.255,30.877 C23.523668,30.7989996 23.8009986,30.76 24.087,30.76 C24.5203355,30.76 24.9211648,30.8466658 25.2895,31.02 C25.6578352,31.1933342 25.945999,31.474998 26.154,31.865 L25.309,32.424 C25.1789993,32.2073322 25.0078344,32.031834 24.7955,31.8975 C24.5831656,31.763166 24.3253348,31.696 24.022,31.696 C23.8833326,31.696 23.7425007,31.7133332 23.5995,31.748 C23.4564993,31.7826668 23.3286672,31.8346663 23.216,31.904 C23.1033328,31.9733337 23.010167,32.0621661 22.9365,32.1705 C22.862833,32.2788339 22.826,32.4023326 22.826,32.541 C22.826,32.6710006 22.8671663,32.7814995 22.9495,32.8725 C23.0318337,32.9635005 23.1444993,33.0436663 23.2875,33.113 C23.4305007,33.1823337 23.5951657,33.2429997 23.7815,33.295 C23.9678343,33.3470003 24.1606657,33.3903332 24.36,33.425 C24.628668,33.4770003 24.8843321,33.5441663 25.127,33.6265 C25.3696679,33.7088337 25.5819991,33.8193326 25.764,33.958 C25.9460009,34.0966674 26.0889995,34.269999 26.193,34.478 C26.2970005,34.686001 26.349,34.9416651 26.349,35.245 C26.349,35.5916684 26.2796674,35.8863321 26.141,36.129 C26.0023326,36.3716679 25.8181678,36.5688326 25.5885,36.7205 C25.3588322,36.8721674 25.0988348,36.9826663 24.8085,37.052 C24.5181652,37.1213337 24.2213348,37.156 23.918,37.156 C23.3979974,37.156 22.9495019,37.0758341 22.5725,36.9155 C22.1954981,36.7551659 21.8553348,36.4583355 21.552,36.025 L22.358,35.401 Z M28.611,35.518 C28.8276677,35.518 29.0118326,35.5938326 29.1635,35.7455 C29.3151674,35.8971674 29.391,36.0813322 29.391,36.298 C29.391,36.5146677 29.3108341,36.6988326 29.1505,36.8505 C28.9901659,37.0021674 28.8103343,37.078 28.611,37.078 C28.4116657,37.078 28.2318341,37.0021674 28.0715,36.8505 C27.9111659,36.6988326 27.831,36.5146677 27.831,36.298 C27.831,36.0813322 27.9068326,35.8971674 28.0585,35.7455 C28.2101674,35.5938326 28.3943322,35.518 28.611,35.518 L28.611,35.518 Z" id="vs.-copy" fill="#6F7A84"></path>
                <rect id="Rectangle-2-Copy-26" fill="#14B2E2" x="0" y="0" width="12" height="47"></rect>
                <rect id="Rectangle-2-Copy-31" fill="#14B2E2" x="33" y="15" width="12" height="32"></rect>
                <rect id="Rectangle-2-Copy-32" fill="#14B2E2" x="66" y="26" width="12" height="21"></rect>
            </g>
        </g>
    </g>
</svg>