<?xml version="1.0" encoding="UTF-8" standalone="no"?>
<svg width="96px" height="64px" viewBox="0 0 96 64" version="1.1" xmlns="http://www.w3.org/2000/svg" xmlns:xlink="http://www.w3.org/1999/xlink">
    <!-- Generator: Sketch 3.7.2 (28276) - http://www.bohemiancoding.com/sketch -->
    <title>Group Copy 2</title>
    <desc>Created with Sketch.</desc>
    <defs></defs>
    <g id="Page-1" stroke="none" stroke-width="1" fill="none" fill-rule="evenodd">
        <g id="SVG-icons-product" transform="translate(-467.000000, -496.000000)">
            <g id="Group-Copy-2" transform="translate(468.000000, 496.000000)">
                <rect id="Rectangle-2-Copy-26" fill="#14B2E2" x="14" y="0" width="12" height="47"></rect>
                <rect id="Rectangle-2-Copy-33" fill="#96D5E8" x="2" y="11" width="12" height="36"></rect>
                <rect id="Rectangle-2-Copy-34" fill="#96D5E8" x="34" y="35" width="12" height="12"></rect>
                <rect id="Rectangle-2-Copy-35" fill="#96D5E8" x="66" y="31" width="12" height="16"></rect>
                <rect id="Rectangle-2-Copy-31" fill="#14B2E2" x="46" y="15" width="12" height="32"></rect>
                <rect id="Rectangle-2-Copy-32" fill="#14B2E2" x="78" y="26" width="12" height="21"></rect>
                <g id="Group-2" transform="translate(-0.000000, 52.000000)">
                    <path d="M38.29,4.774 L36.496,4.774 L36.496,7.816 C36.496,8.01533433 36.5003333,8.19949916 36.509,8.3685 C36.5176667,8.53750085 36.552333,8.68483271 36.613,8.8105 C36.673667,8.9361673 36.7646661,9.03583297 36.886,9.1095 C37.0073339,9.18316704 37.1806655,9.22 37.406,9.22 C37.5533341,9.22 37.7049992,9.20266684 37.861,9.168 C38.0170008,9.13333316 38.1643326,9.08133368 38.303,9.012 L38.342,9.935 C38.1686658,10.0130004 37.9758344,10.0693332 37.7635,10.104 C37.5511656,10.1386668 37.3496676,10.156 37.159,10.156 C36.7949982,10.156 36.5046677,10.1083338 36.288,10.013 C36.0713322,9.91766619 35.9023339,9.7833342 35.781,9.61 C35.6596661,9.4366658 35.5795002,9.22216795 35.5405,8.9665 C35.5014998,8.71083206 35.482,8.42700156 35.482,8.115 L35.482,4.774 L34.156,4.774 L34.156,3.916 L35.482,3.916 L35.482,2.187 L36.496,2.187 L36.496,3.916 L38.29,3.916 L38.29,4.774 Z M39.629,3.916 L40.643,3.916 L40.643,10 L39.629,10 L39.629,3.916 Z M39.395,1.537 C39.395,1.33766567 39.4664993,1.16433407 39.6095,1.017 C39.7525007,0.86966593 39.927999,0.796 40.136,0.796 C40.344001,0.796 40.5194993,0.86966593 40.6625,1.017 C40.8055007,1.16433407 40.877,1.33766567 40.877,1.537 C40.877,1.75366775 40.8076674,1.93133264 40.669,2.07 C40.5303326,2.20866736 40.3526677,2.278 40.136,2.278 C39.9193322,2.278 39.7416674,2.20866736 39.603,2.07 C39.4643326,1.93133264 39.395,1.75366775 39.395,1.537 L39.395,1.537 Z M42.658,5.359 C42.658,5.08166528 42.6493334,4.82166788 42.632,4.579 C42.6146666,4.33633212 42.606,4.11533433 42.606,3.916 L43.568,3.916 C43.568,4.08066749 43.5723333,4.24533251 43.581,4.41 C43.5896667,4.57466749 43.594,4.7436658 43.594,4.917 L43.62,4.917 C43.6893337,4.76966593 43.7868327,4.62666736 43.9125,4.488 C44.0381673,4.34933264 44.1876658,4.22583388 44.361,4.1175 C44.5343342,4.00916613 44.7293322,3.92250033 44.946,3.8575 C45.1626677,3.79249968 45.3966654,3.76 45.648,3.76 C45.977335,3.76 46.2524989,3.80116626 46.4735,3.8835 C46.6945011,3.96583375 46.8786659,4.06549942 47.026,4.1825 C47.1733341,4.29950059 47.2881663,4.425166 47.3705,4.5595 C47.4528337,4.69383401 47.5199997,4.81299948 47.572,4.917 C47.7973345,4.55299818 48.0573319,4.26916769 48.352,4.0655 C48.6466681,3.86183232 49.0279977,3.76 49.496,3.76 C49.9293355,3.76 50.2933319,3.81849942 50.588,3.9355 C50.8826681,4.05250059 51.1209991,4.2214989 51.303,4.4425 C51.4850009,4.66350111 51.6149996,4.93216509 51.693,5.2485 C51.7710004,5.56483492 51.81,5.91799805 51.81,6.308 L51.81,10 L50.796,10 L50.796,6.36 C50.796,6.15199896 50.7743335,5.94833433 50.731,5.749 C50.6876664,5.54966567 50.6096672,5.37200078 50.497,5.216 C50.3843328,5.05999922 50.2326676,4.93433381 50.042,4.839 C49.8513324,4.74366619 49.6086681,4.696 49.314,4.696 C49.0973322,4.696 48.8936676,4.7393329 48.703,4.826 C48.5123324,4.9126671 48.3455007,5.03399922 48.2025,5.19 C48.0594993,5.34600078 47.9468337,5.5344989 47.8645,5.7555 C47.7821663,5.97650111 47.741,6.22133199 47.741,6.49 L47.741,10 L46.727,10 L46.727,6.555 C46.727,5.87899662 46.6360009,5.40016808 46.454,5.1185 C46.2719991,4.83683193 45.9730021,4.696 45.557,4.696 C45.227665,4.696 44.9438345,4.75233277 44.7055,4.865 C44.4671655,4.97766723 44.2721674,5.13799896 44.1205,5.346 C43.9688326,5.55400104 43.856167,5.80099857 43.7825,6.087 C43.708833,6.37300143 43.672,6.6893316 43.672,7.036 L43.672,10 L42.658,10 L42.658,5.359 Z M59.168,8.895 C58.8039982,9.36300234 58.4053355,9.69016574 57.972,9.8765 C57.5386645,10.0628343 57.0360029,10.156 56.464,10.156 C55.9873309,10.156 55.5583352,10.0715008 55.177,9.9025 C54.7956648,9.73349916 54.4728347,9.50600143 54.2085,9.22 C53.9441653,8.93399857 53.7405007,8.59600195 53.5975,8.206 C53.4544993,7.81599805 53.383,7.40000221 53.383,6.958 C53.383,6.48999766 53.4609992,6.05883531 53.617,5.6645 C53.7730008,5.2701647 53.9896653,4.93216808 54.267,4.6505 C54.5443347,4.36883193 54.8736648,4.15000078 55.255,3.994 C55.6363352,3.83799922 56.0523311,3.76 56.503,3.76 C56.9276688,3.76 57.3176649,3.83149929 57.673,3.9745 C58.0283351,4.11750072 58.3338321,4.32549864 58.5895,4.5985 C58.8451679,4.87150137 59.0423326,5.2051647 59.181,5.5995 C59.3196674,5.99383531 59.389,6.44233082 59.389,6.945 L59.389,7.27 L54.475,7.27 C54.4923334,7.5300013 54.5551661,7.77916548 54.6635,8.0175 C54.7718339,8.25583453 54.9126658,8.46383245 55.086,8.6415 C55.2593342,8.81916756 55.4629988,8.95999948 55.697,9.064 C55.9310012,9.16800052 56.1866653,9.22 56.464,9.22 C56.9060022,9.22 57.2786651,9.14200078 57.582,8.986 C57.8853348,8.82999922 58.1583321,8.60033485 58.401,8.297 L59.168,8.895 Z M58.297,6.412 C58.2796666,5.8919974 58.1106683,5.47600156 57.79,5.164 C57.4693317,4.85199844 57.0273361,4.696 56.464,4.696 C55.9006638,4.696 55.4456684,4.85199844 55.099,5.164 C54.7523316,5.47600156 54.5443337,5.8919974 54.475,6.412 L58.297,6.412 Z" id="time" fill="#717C87"></path>
                    <path d="M-5.68434189e-14,7 L30,7" id="Line-Copy" stroke="#94A1AD" stroke-width="2" stroke-linecap="square"></path>
                    <path d="M63,7 L92,7" id="Line-Copy-3" stroke="#94A1AD" stroke-width="2" stroke-linecap="square"></path>
                    <polyline id="Path-5" stroke="#94A1AD" stroke-width="2" points="90 11.0167236 93.0273437 7.00836182 90 3"></polyline>
                </g>
            </g>
        </g>
    </g>
</svg>