<?xml version="1.0" encoding="UTF-8" standalone="no"?>
<svg width="90px" height="82px" viewBox="0 0 90 82" version="1.1" xmlns="http://www.w3.org/2000/svg" xmlns:xlink="http://www.w3.org/1999/xlink">
    <!-- Generator: Sketch 3.7.2 (28276) - http://www.bohemiancoding.com/sketch -->
    <title>Group 8</title>
    <desc>Created with Sketch.</desc>
    <defs></defs>
    <g id="Page-1" stroke="none" stroke-width="1" fill="none" fill-rule="evenodd">
        <g id="SVG-icons-product" transform="translate(-636.000000, -478.000000)">
            <g id="Group-8" transform="translate(636.000000, 478.000000)">
                <path d="M8,80.9831543 L8,16" id="Line" stroke-opacity="0.1" stroke="#000000" stroke-width="2" stroke-linecap="square"></path>
                <path d="M75,80.9831543 L75,16" id="Line-Copy-4" stroke-opacity="0.1" stroke="#000000" stroke-width="2" stroke-linecap="square"></path>
                <rect id="Rectangle-2-Copy-26" fill="#14B2E2" transform="translate(44.500000, 28.500000) rotate(-270.000000) translate(-44.500000, -28.500000) " x="38" y="-9" width="13" height="75"></rect>
                <rect id="Rectangle-2-Copy-36" fill="#14B2E2" transform="translate(29.500000, 47.500000) rotate(-270.000000) translate(-29.500000, -47.500000) " x="23" y="25" width="13" height="45"></rect>
                <rect id="Rectangle-2-Copy-37" fill="#14B2E2" transform="translate(19.000000, 66.500000) rotate(-270.000000) translate(-19.000000, -66.500000) " x="12.5" y="54.5" width="13" height="24"></rect>
                <path d="M0.494,5.398 C0.494,4.8779974 0.5373329,4.33633615 0.624,3.773 C0.7106671,3.20966385 0.87099883,2.69616898 1.105,2.2325 C1.33900117,1.76883101 1.65749799,1.38750149 2.0605,1.0885 C2.46350202,0.789498505 2.98133017,0.64 3.614,0.64 C4.24666983,0.64 4.76449799,0.789498505 5.1675,1.0885 C5.57050202,1.38750149 5.88899883,1.76883101 6.123,2.2325 C6.35700117,2.69616898 6.5173329,3.20966385 6.604,3.773 C6.6906671,4.33633615 6.734,4.8779974 6.734,5.398 C6.734,5.9180026 6.6906671,6.45966385 6.604,7.023 C6.5173329,7.58633615 6.35700117,8.09983101 6.123,8.5635 C5.88899883,9.02716898 5.57050202,9.4084985 5.1675,9.7075 C4.76449799,10.0065015 4.24666983,10.156 3.614,10.156 C2.98133017,10.156 2.46350202,10.0065015 2.0605,9.7075 C1.65749799,9.4084985 1.33900117,9.02716898 1.105,8.5635 C0.87099883,8.09983101 0.7106671,7.58633615 0.624,7.023 C0.5373329,6.45966385 0.494,5.9180026 0.494,5.398 L0.494,5.398 Z M1.586,5.398 C1.586,5.62333446 1.59466658,5.87466528 1.612,6.152 C1.62933342,6.42933472 1.6618331,6.70883192 1.7095,6.9905 C1.75716691,7.27216807 1.82649955,7.54733199 1.9175,7.816 C2.00850046,8.08466801 2.12983258,8.32299896 2.2815,8.531 C2.43316743,8.73900104 2.61733225,8.9058327 2.834,9.0315 C3.05066775,9.15716729 3.31066515,9.22 3.614,9.22 C3.91733485,9.22 4.17733225,9.15716729 4.394,9.0315 C4.61066775,8.9058327 4.79483258,8.73900104 4.9465,8.531 C5.09816743,8.32299896 5.21949955,8.08466801 5.3105,7.816 C5.40150046,7.54733199 5.4708331,7.27216807 5.5185,6.9905 C5.56616691,6.70883192 5.59866658,6.42933472 5.616,6.152 C5.63333342,5.87466528 5.642,5.62333446 5.642,5.398 C5.642,5.17266554 5.63333342,4.92133472 5.616,4.644 C5.59866658,4.36666528 5.56616691,4.08716807 5.5185,3.8055 C5.4708331,3.52383192 5.40150046,3.24866801 5.3105,2.98 C5.21949955,2.71133199 5.09816743,2.47300104 4.9465,2.265 C4.79483258,2.05699896 4.61066775,1.89016729 4.394,1.7645 C4.17733225,1.6388327 3.91733485,1.576 3.614,1.576 C3.31066515,1.576 3.05066775,1.6388327 2.834,1.7645 C2.61733225,1.89016729 2.43316743,2.05699896 2.2815,2.265 C2.12983258,2.47300104 2.00850046,2.71133199 1.9175,2.98 C1.82649955,3.24866801 1.75716691,3.52383192 1.7095,3.8055 C1.6618331,4.08716807 1.62933342,4.36666528 1.612,4.644 C1.59466658,4.92133472 1.586,5.17266554 1.586,5.398 L1.586,5.398 Z M7.722,2.915 C7.722,2.59433173 7.78049942,2.29533472 7.8975,2.018 C8.01450059,1.74066528 8.17483232,1.50016768 8.3785,1.2965 C8.58216769,1.09283231 8.82266528,0.932500585 9.1,0.8155 C9.37733472,0.698499415 9.67633173,0.64 9.997,0.64 C10.3176683,0.64 10.6166653,0.698499415 10.894,0.8155 C11.1713347,0.932500585 11.4118323,1.09283231 11.6155,1.2965 C11.8191677,1.50016768 11.9794994,1.74066528 12.0965,2.018 C12.2135006,2.29533472 12.272,2.59433173 12.272,2.915 C12.272,3.23566827 12.2135006,3.53466528 12.0965,3.812 C11.9794994,4.08933472 11.8191677,4.32983231 11.6155,4.5335 C11.4118323,4.73716768 11.1713347,4.89749941 10.894,5.0145 C10.6166653,5.13150058 10.3176683,5.19 9.997,5.19 C9.67633173,5.19 9.37733472,5.13150058 9.1,5.0145 C8.82266528,4.89749941 8.58216769,4.73716768 8.3785,4.5335 C8.17483232,4.32983231 8.01450059,4.08933472 7.8975,3.812 C7.78049942,3.53466528 7.722,3.23566827 7.722,2.915 L7.722,2.915 Z M8.658,2.915 C8.658,3.09700091 8.69483297,3.26816586 8.7685,3.4285 C8.84216704,3.58883413 8.93966606,3.7318327 9.061,3.8575 C9.18233394,3.98316729 9.32316587,4.08066632 9.4835,4.15 C9.64383414,4.21933368 9.81499909,4.254 9.997,4.254 C10.1790009,4.254 10.3501659,4.21933368 10.5105,4.15 C10.6708341,4.08066632 10.8116661,3.98316729 10.933,3.8575 C11.0543339,3.7318327 11.151833,3.58883413 11.2255,3.4285 C11.299167,3.26816586 11.336,3.09700091 11.336,2.915 C11.336,2.73299909 11.299167,2.56183413 11.2255,2.4015 C11.151833,2.24116586 11.0543339,2.09816729 10.933,1.9725 C10.8116661,1.8468327 10.6708341,1.74933368 10.5105,1.68 C10.3501659,1.61066632 10.1790009,1.576 9.997,1.576 C9.81499909,1.576 9.64383414,1.61066632 9.4835,1.68 C9.32316587,1.74933368 9.18233394,1.8468327 9.061,1.9725 C8.93966606,2.09816729 8.84216704,2.24116586 8.7685,2.4015 C8.69483297,2.56183413 8.658,2.73299909 8.658,2.915 L8.658,2.915 Z M13.013,7.881 C13.013,7.56033173 13.0714994,7.26133472 13.1885,6.984 C13.3055006,6.70666528 13.4658323,6.46616768 13.6695,6.2625 C13.8731677,6.05883231 14.1136653,5.89850058 14.391,5.7815 C14.6683347,5.66449941 14.9673317,5.606 15.288,5.606 C15.6086683,5.606 15.9076653,5.66449941 16.185,5.7815 C16.4623347,5.89850058 16.7028323,6.05883231 16.9065,6.2625 C17.1101677,6.46616768 17.2704994,6.70666528 17.3875,6.984 C17.5045006,7.26133472 17.563,7.56033173 17.563,7.881 C17.563,8.20166827 17.5045006,8.50066528 17.3875,8.778 C17.2704994,9.05533472 17.1101677,9.29583231 16.9065,9.4995 C16.7028323,9.70316768 16.4623347,9.86349941 16.185,9.9805 C15.9076653,10.0975006 15.6086683,10.156 15.288,10.156 C14.9673317,10.156 14.6683347,10.0975006 14.391,9.9805 C14.1136653,9.86349941 13.8731677,9.70316768 13.6695,9.4995 C13.4658323,9.29583231 13.3055006,9.05533472 13.1885,8.778 C13.0714994,8.50066528 13.013,8.20166827 13.013,7.881 L13.013,7.881 Z M13.949,7.881 C13.949,8.06300091 13.985833,8.23416586 14.0595,8.3945 C14.133167,8.55483413 14.2306661,8.6978327 14.352,8.8235 C14.4733339,8.94916729 14.6141659,9.04666632 14.7745,9.116 C14.9348341,9.18533368 15.1059991,9.22 15.288,9.22 C15.4700009,9.22 15.6411659,9.18533368 15.8015,9.116 C15.9618341,9.04666632 16.1026661,8.94916729 16.224,8.8235 C16.3453339,8.6978327 16.442833,8.55483413 16.5165,8.3945 C16.590167,8.23416586 16.627,8.06300091 16.627,7.881 C16.627,7.69899909 16.590167,7.52783413 16.5165,7.3675 C16.442833,7.20716586 16.3453339,7.06416729 16.224,6.9385 C16.1026661,6.8128327 15.9618341,6.71533368 15.8015,6.646 C15.6411659,6.57666632 15.4700009,6.542 15.288,6.542 C15.1059991,6.542 14.9348341,6.57666632 14.7745,6.646 C14.6141659,6.71533368 14.4733339,6.8128327 14.352,6.9385 C14.2306661,7.06416729 14.133167,7.20716586 14.0595,7.3675 C13.985833,7.52783413 13.949,7.69899909 13.949,7.881 L13.949,7.881 Z M15.21,0.38 L15.925,0.796 L10.153,10.416 L9.438,10 L15.21,0.38 Z" id="0%" fill="#707C86"></path>
                <path d="M71.162,1.81 L67.405,1.81 L67.366,4.293 C67.5393342,4.2063329 67.7321656,4.14783348 67.9445,4.1175 C68.1568344,4.08716651 68.3583324,4.072 68.549,4.072 C68.9910022,4.072 69.3918315,4.14783257 69.7515,4.2995 C70.1111685,4.45116742 70.4209987,4.66349863 70.681,4.9365 C70.9410013,5.20950136 71.1403326,5.53016482 71.279,5.8985 C71.4176674,6.26683517 71.487,6.6676645 71.487,7.101 C71.487,7.56033563 71.4068341,7.97849811 71.2465,8.3555 C71.0861659,8.73250188 70.8651681,9.05316534 70.5835,9.3175 C70.3018319,9.58183465 69.9681686,9.78766593 69.5825,9.935 C69.1968314,10.0823341 68.7786689,10.156 68.328,10.156 C67.6259965,10.156 67.0605021,10.0043348 66.6315,9.701 C66.2024979,9.39766515 65.8623346,8.99033589 65.611,8.479 L66.703,8.063 C66.8590008,8.4096684 67.0864985,8.6891656 67.3855,8.9015 C67.6845015,9.11383439 68.028998,9.22 68.419,9.22 C68.6963347,9.22 68.9541655,9.17016716 69.1925,9.0705 C69.4308345,8.97083283 69.6388324,8.82783426 69.8165,8.6415 C69.9941676,8.45516573 70.1349995,8.2320013 70.239,7.972 C70.3430005,7.7119987 70.395,7.42166827 70.395,7.101 C70.395,6.76299831 70.3365006,6.4640013 70.2195,6.204 C70.1024994,5.9439987 69.9421677,5.72516755 69.7385,5.5475 C69.5348323,5.36983244 69.2943347,5.23550045 69.017,5.1445 C68.7396653,5.05349954 68.4406683,5.008 68.12,5.008 C67.8079984,5.008 67.487335,5.06216612 67.158,5.1705 C66.828665,5.27883387 66.5253347,5.41533251 66.248,5.58 L66.339,0.796 L71.162,0.796 L71.162,1.81 Z M72.722,5.398 C72.722,4.8779974 72.7653329,4.33633615 72.852,3.773 C72.9386671,3.20966385 73.0989988,2.69616898 73.333,2.2325 C73.5670012,1.76883101 73.885498,1.38750149 74.2885,1.0885 C74.691502,0.789498505 75.2093302,0.64 75.842,0.64 C76.4746698,0.64 76.992498,0.789498505 77.3955,1.0885 C77.798502,1.38750149 78.1169988,1.76883101 78.351,2.2325 C78.5850012,2.69616898 78.7453329,3.20966385 78.832,3.773 C78.9186671,4.33633615 78.962,4.8779974 78.962,5.398 C78.962,5.9180026 78.9186671,6.45966385 78.832,7.023 C78.7453329,7.58633615 78.5850012,8.09983101 78.351,8.5635 C78.1169988,9.02716898 77.798502,9.4084985 77.3955,9.7075 C76.992498,10.0065015 76.4746698,10.156 75.842,10.156 C75.2093302,10.156 74.691502,10.0065015 74.2885,9.7075 C73.885498,9.4084985 73.5670012,9.02716898 73.333,8.5635 C73.0989988,8.09983101 72.9386671,7.58633615 72.852,7.023 C72.7653329,6.45966385 72.722,5.9180026 72.722,5.398 L72.722,5.398 Z M73.814,5.398 C73.814,5.62333446 73.8226666,5.87466528 73.84,6.152 C73.8573334,6.42933472 73.8898331,6.70883192 73.9375,6.9905 C73.9851669,7.27216807 74.0544995,7.54733199 74.1455,7.816 C74.2365005,8.08466801 74.3578326,8.32299896 74.5095,8.531 C74.6611674,8.73900104 74.8453322,8.9058327 75.062,9.0315 C75.2786677,9.15716729 75.5386651,9.22 75.842,9.22 C76.1453348,9.22 76.4053322,9.15716729 76.622,9.0315 C76.8386677,8.9058327 77.0228326,8.73900104 77.1745,8.531 C77.3261674,8.32299896 77.4474995,8.08466801 77.5385,7.816 C77.6295005,7.54733199 77.6988331,7.27216807 77.7465,6.9905 C77.7941669,6.70883192 77.8266666,6.42933472 77.844,6.152 C77.8613334,5.87466528 77.87,5.62333446 77.87,5.398 C77.87,5.17266554 77.8613334,4.92133472 77.844,4.644 C77.8266666,4.36666528 77.7941669,4.08716807 77.7465,3.8055 C77.6988331,3.52383192 77.6295005,3.24866801 77.5385,2.98 C77.4474995,2.71133199 77.3261674,2.47300104 77.1745,2.265 C77.0228326,2.05699896 76.8386677,1.89016729 76.622,1.7645 C76.4053322,1.6388327 76.1453348,1.576 75.842,1.576 C75.5386651,1.576 75.2786677,1.6388327 75.062,1.7645 C74.8453322,1.89016729 74.6611674,2.05699896 74.5095,2.265 C74.3578326,2.47300104 74.2365005,2.71133199 74.1455,2.98 C74.0544995,3.24866801 73.9851669,3.52383192 73.9375,3.8055 C73.8898331,4.08716807 73.8573334,4.36666528 73.84,4.644 C73.8226666,4.92133472 73.814,5.17266554 73.814,5.398 L73.814,5.398 Z M79.95,2.915 C79.95,2.59433173 80.0084994,2.29533472 80.1255,2.018 C80.2425006,1.74066528 80.4028323,1.50016768 80.6065,1.2965 C80.8101677,1.09283231 81.0506653,0.932500585 81.328,0.8155 C81.6053347,0.698499415 81.9043317,0.64 82.225,0.64 C82.5456683,0.64 82.8446653,0.698499415 83.122,0.8155 C83.3993347,0.932500585 83.6398323,1.09283231 83.8435,1.2965 C84.0471677,1.50016768 84.2074994,1.74066528 84.3245,2.018 C84.4415006,2.29533472 84.5,2.59433173 84.5,2.915 C84.5,3.23566827 84.4415006,3.53466528 84.3245,3.812 C84.2074994,4.08933472 84.0471677,4.32983231 83.8435,4.5335 C83.6398323,4.73716768 83.3993347,4.89749941 83.122,5.0145 C82.8446653,5.13150058 82.5456683,5.19 82.225,5.19 C81.9043317,5.19 81.6053347,5.13150058 81.328,5.0145 C81.0506653,4.89749941 80.8101677,4.73716768 80.6065,4.5335 C80.4028323,4.32983231 80.2425006,4.08933472 80.1255,3.812 C80.0084994,3.53466528 79.95,3.23566827 79.95,2.915 L79.95,2.915 Z M80.886,2.915 C80.886,3.09700091 80.922833,3.26816586 80.9965,3.4285 C81.070167,3.58883413 81.1676661,3.7318327 81.289,3.8575 C81.4103339,3.98316729 81.5511659,4.08066632 81.7115,4.15 C81.8718341,4.21933368 82.0429991,4.254 82.225,4.254 C82.4070009,4.254 82.5781659,4.21933368 82.7385,4.15 C82.8988341,4.08066632 83.0396661,3.98316729 83.161,3.8575 C83.2823339,3.7318327 83.379833,3.58883413 83.4535,3.4285 C83.527167,3.26816586 83.564,3.09700091 83.564,2.915 C83.564,2.73299909 83.527167,2.56183413 83.4535,2.4015 C83.379833,2.24116586 83.2823339,2.09816729 83.161,1.9725 C83.0396661,1.8468327 82.8988341,1.74933368 82.7385,1.68 C82.5781659,1.61066632 82.4070009,1.576 82.225,1.576 C82.0429991,1.576 81.8718341,1.61066632 81.7115,1.68 C81.5511659,1.74933368 81.4103339,1.8468327 81.289,1.9725 C81.1676661,2.09816729 81.070167,2.24116586 80.9965,2.4015 C80.922833,2.56183413 80.886,2.73299909 80.886,2.915 L80.886,2.915 Z M85.241,7.881 C85.241,7.56033173 85.2994994,7.26133472 85.4165,6.984 C85.5335006,6.70666528 85.6938323,6.46616768 85.8975,6.2625 C86.1011677,6.05883231 86.3416653,5.89850058 86.619,5.7815 C86.8963347,5.66449941 87.1953317,5.606 87.516,5.606 C87.8366683,5.606 88.1356653,5.66449941 88.413,5.7815 C88.6903347,5.89850058 88.9308323,6.05883231 89.1345,6.2625 C89.3381677,6.46616768 89.4984994,6.70666528 89.6155,6.984 C89.7325006,7.26133472 89.791,7.56033173 89.791,7.881 C89.791,8.20166827 89.7325006,8.50066528 89.6155,8.778 C89.4984994,9.05533472 89.3381677,9.29583231 89.1345,9.4995 C88.9308323,9.70316768 88.6903347,9.86349941 88.413,9.9805 C88.1356653,10.0975006 87.8366683,10.156 87.516,10.156 C87.1953317,10.156 86.8963347,10.0975006 86.619,9.9805 C86.3416653,9.86349941 86.1011677,9.70316768 85.8975,9.4995 C85.6938323,9.29583231 85.5335006,9.05533472 85.4165,8.778 C85.2994994,8.50066528 85.241,8.20166827 85.241,7.881 L85.241,7.881 Z M86.177,7.881 C86.177,8.06300091 86.213833,8.23416586 86.2875,8.3945 C86.361167,8.55483413 86.4586661,8.6978327 86.58,8.8235 C86.7013339,8.94916729 86.8421659,9.04666632 87.0025,9.116 C87.1628341,9.18533368 87.3339991,9.22 87.516,9.22 C87.6980009,9.22 87.8691659,9.18533368 88.0295,9.116 C88.1898341,9.04666632 88.3306661,8.94916729 88.452,8.8235 C88.5733339,8.6978327 88.670833,8.55483413 88.7445,8.3945 C88.818167,8.23416586 88.855,8.06300091 88.855,7.881 C88.855,7.69899909 88.818167,7.52783413 88.7445,7.3675 C88.670833,7.20716586 88.5733339,7.06416729 88.452,6.9385 C88.3306661,6.8128327 88.1898341,6.71533368 88.0295,6.646 C87.8691659,6.57666632 87.6980009,6.542 87.516,6.542 C87.3339991,6.542 87.1628341,6.57666632 87.0025,6.646 C86.8421659,6.71533368 86.7013339,6.8128327 86.58,6.9385 C86.4586661,7.06416729 86.361167,7.20716586 86.2875,7.3675 C86.213833,7.52783413 86.177,7.69899909 86.177,7.881 L86.177,7.881 Z M87.438,0.38 L88.153,0.796 L82.381,10.416 L81.666,10 L87.438,0.38 Z" id="50%" fill="#707C86"></path>
            </g>
        </g>
    </g>
</svg>