<?xml version="1.0" encoding="UTF-8" standalone="no"?>
<svg width="79px" height="69px" viewBox="0 0 79 69" version="1.1" xmlns="http://www.w3.org/2000/svg" xmlns:xlink="http://www.w3.org/1999/xlink">
    <!-- Generator: Sketch 3.7.2 (28276) - http://www.bohemiancoding.com/sketch -->
    <title>Group 3 Copy 2</title>
    <desc>Created with Sketch.</desc>
    <defs></defs>
    <g id="Page-1" stroke="none" stroke-width="1" fill="none" fill-rule="evenodd">
        <g id="SVG-icons-product" transform="translate(-191.000000, -491.000000)">
            <g id="Group-3-Copy-2" transform="translate(192.000000, 491.000000)">
                <rect id="Rectangle-2-Copy-26" fill="#14B2E2" x="3" y="29" width="13" height="23"></rect>
                <rect id="Rectangle-2-Copy-27" fill="#14B2E2" x="23" y="19" width="13" height="33"></rect>
                <rect id="Rectangle-2-Copy-28" fill="#14B2E2" x="42" y="9" width="13" height="43"></rect>
                <rect id="Rectangle-2-Copy-29" fill="#14B2E2" x="62" y="0" width="13" height="52"></rect>
                <g id="Group-2" transform="translate(0.000000, 57.000000)">
                    <path d="M31.29,4.774 L29.496,4.774 L29.496,7.816 C29.496,8.01533433 29.5003333,8.19949916 29.509,8.3685 C29.5176667,8.53750085 29.552333,8.68483271 29.613,8.8105 C29.673667,8.9361673 29.7646661,9.03583297 29.886,9.1095 C30.0073339,9.18316704 30.1806655,9.22 30.406,9.22 C30.5533341,9.22 30.7049992,9.20266684 30.861,9.168 C31.0170008,9.13333316 31.1643326,9.08133368 31.303,9.012 L31.342,9.935 C31.1686658,10.0130004 30.9758344,10.0693332 30.7635,10.104 C30.5511656,10.1386668 30.3496676,10.156 30.159,10.156 C29.7949982,10.156 29.5046678,10.1083338 29.288,10.013 C29.0713323,9.91766619 28.9023339,9.7833342 28.781,9.61 C28.6596661,9.4366658 28.5795002,9.22216795 28.5405,8.9665 C28.5014998,8.71083206 28.482,8.42700156 28.482,8.115 L28.482,4.774 L27.156,4.774 L27.156,3.916 L28.482,3.916 L28.482,2.187 L29.496,2.187 L29.496,3.916 L31.29,3.916 L31.29,4.774 Z M32.629,3.916 L33.643,3.916 L33.643,10 L32.629,10 L32.629,3.916 Z M32.395,1.537 C32.395,1.33766567 32.4664993,1.16433407 32.6095,1.017 C32.7525007,0.86966593 32.927999,0.796 33.136,0.796 C33.344001,0.796 33.5194993,0.86966593 33.6625,1.017 C33.8055007,1.16433407 33.877,1.33766567 33.877,1.537 C33.877,1.75366775 33.8076674,1.93133264 33.669,2.07 C33.5303326,2.20866736 33.3526678,2.278 33.136,2.278 C32.9193323,2.278 32.7416674,2.20866736 32.603,2.07 C32.4643326,1.93133264 32.395,1.75366775 32.395,1.537 L32.395,1.537 Z M35.658,5.359 C35.658,5.08166528 35.6493334,4.82166788 35.632,4.579 C35.6146666,4.33633212 35.606,4.11533433 35.606,3.916 L36.568,3.916 C36.568,4.08066749 36.5723333,4.24533251 36.581,4.41 C36.5896667,4.57466749 36.594,4.7436658 36.594,4.917 L36.62,4.917 C36.6893337,4.76966593 36.7868327,4.62666736 36.9125,4.488 C37.0381673,4.34933264 37.1876658,4.22583388 37.361,4.1175 C37.5343342,4.00916613 37.7293323,3.92250033 37.946,3.8575 C38.1626678,3.79249968 38.3966654,3.76 38.648,3.76 C38.977335,3.76 39.2524989,3.80116626 39.4735,3.8835 C39.6945011,3.96583375 39.8786659,4.06549942 40.026,4.1825 C40.1733341,4.29950059 40.2881663,4.425166 40.3705,4.5595 C40.4528337,4.69383401 40.5199997,4.81299948 40.572,4.917 C40.7973345,4.55299818 41.0573319,4.26916769 41.352,4.0655 C41.6466681,3.86183232 42.0279977,3.76 42.496,3.76 C42.9293355,3.76 43.2933319,3.81849942 43.588,3.9355 C43.8826681,4.05250059 44.1209991,4.2214989 44.303,4.4425 C44.4850009,4.66350111 44.6149996,4.93216509 44.693,5.2485 C44.7710004,5.56483492 44.81,5.91799805 44.81,6.308 L44.81,10 L43.796,10 L43.796,6.36 C43.796,6.15199896 43.7743336,5.94833433 43.731,5.749 C43.6876665,5.54966567 43.6096672,5.37200078 43.497,5.216 C43.3843328,5.05999922 43.2326676,4.93433381 43.042,4.839 C42.8513324,4.74366619 42.6086681,4.696 42.314,4.696 C42.0973323,4.696 41.8936676,4.7393329 41.703,4.826 C41.5123324,4.9126671 41.3455007,5.03399922 41.2025,5.19 C41.0594993,5.34600078 40.9468337,5.5344989 40.8645,5.7555 C40.7821663,5.97650111 40.741,6.22133199 40.741,6.49 L40.741,10 L39.727,10 L39.727,6.555 C39.727,5.87899662 39.6360009,5.40016808 39.454,5.1185 C39.2719991,4.83683193 38.9730021,4.696 38.557,4.696 C38.227665,4.696 37.9438345,4.75233277 37.7055,4.865 C37.4671655,4.97766723 37.2721674,5.13799896 37.1205,5.346 C36.9688326,5.55400104 36.856167,5.80099857 36.7825,6.087 C36.708833,6.37300143 36.672,6.6893316 36.672,7.036 L36.672,10 L35.658,10 L35.658,5.359 Z M52.168,8.895 C51.8039982,9.36300234 51.4053355,9.69016574 50.972,9.8765 C50.5386645,10.0628343 50.0360029,10.156 49.464,10.156 C48.987331,10.156 48.5583352,10.0715008 48.177,9.9025 C47.7956648,9.73349916 47.4728347,9.50600143 47.2085,9.22 C46.9441653,8.93399857 46.7405007,8.59600195 46.5975,8.206 C46.4544993,7.81599805 46.383,7.40000221 46.383,6.958 C46.383,6.48999766 46.4609992,6.05883531 46.617,5.6645 C46.7730008,5.2701647 46.9896653,4.93216808 47.267,4.6505 C47.5443347,4.36883193 47.8736648,4.15000078 48.255,3.994 C48.6363352,3.83799922 49.0523311,3.76 49.503,3.76 C49.9276688,3.76 50.3176649,3.83149929 50.673,3.9745 C51.0283351,4.11750072 51.3338321,4.32549864 51.5895,4.5985 C51.8451679,4.87150137 52.0423326,5.2051647 52.181,5.5995 C52.3196674,5.99383531 52.389,6.44233082 52.389,6.945 L52.389,7.27 L47.475,7.27 C47.4923334,7.5300013 47.5551661,7.77916548 47.6635,8.0175 C47.7718339,8.25583453 47.9126658,8.46383245 48.086,8.6415 C48.2593342,8.81916756 48.4629988,8.95999948 48.697,9.064 C48.9310012,9.16800052 49.1866653,9.22 49.464,9.22 C49.9060022,9.22 50.2786652,9.14200078 50.582,8.986 C50.8853349,8.82999922 51.1583321,8.60033485 51.401,8.297 L52.168,8.895 Z M51.297,6.412 C51.2796666,5.8919974 51.1106683,5.47600156 50.79,5.164 C50.4693317,4.85199844 50.0273362,4.696 49.464,4.696 C48.9006639,4.696 48.4456684,4.85199844 48.099,5.164 C47.7523316,5.47600156 47.5443337,5.8919974 47.475,6.412 L51.297,6.412 Z" id="time" fill="#7D8A97"></path>
                    <path d="M0,7 L23,7" id="Line-Copy" stroke="#94A1AD" stroke-width="2" stroke-linecap="square"></path>
                    <path d="M56,7 L75,7" id="Line-Copy-3" stroke="#94A1AD" stroke-width="2" stroke-linecap="square"></path>
                    <polyline id="Path-5" stroke="#94A1AD" stroke-width="2" points="73 11.0167236 76.0273438 7.00836182 73 3"></polyline>
                </g>
            </g>
        </g>
    </g>
</svg>