<?xml version="1.0" encoding="UTF-8" standalone="no"?>
<svg width="88px" height="65px" viewBox="0 0 88 65" version="1.1" xmlns="http://www.w3.org/2000/svg" xmlns:xlink="http://www.w3.org/1999/xlink">
    <!-- Generator: Sketch 3.7.2 (28276) - http://www.bohemiancoding.com/sketch -->
    <title>Group Copy</title>
    <desc>Created with Sketch.</desc>
    <defs></defs>
    <g id="Page-1" stroke="none" stroke-width="1" fill="none" fill-rule="evenodd">
        <g id="SVG-icons-product" transform="translate(-323.000000, -496.000000)">
            <g id="Group-Copy" transform="translate(323.000000, 496.000000)">
                <path d="M11.134,54.796 L12.161,54.796 L16.074,64 L14.8,64 L13.864,61.738 L9.262,61.738 L8.313,64 L7.078,64 L11.134,54.796 Z M11.628,56.2 L11.602,56.2 L9.691,60.724 L13.448,60.724 L11.628,56.2 Z" id="A" fill="#707C86"></path>
                <path d="M42.144,54.796 L44.952,54.796 C45.3333352,54.796 45.7059982,54.8349996 46.07,54.913 C46.4340018,54.9910004 46.7589986,55.1188324 47.045,55.2965 C47.3310014,55.4741676 47.5628324,55.7059986 47.7405,55.992 C47.9181676,56.2780014 48.007,56.6333312 48.007,57.058 C48.007,57.595336 47.8618348,58.0394982 47.5715,58.3905 C47.2811652,58.7415018 46.8890025,58.9906659 46.395,59.138 L46.395,59.164 C46.6896681,59.1900001 46.9648321,59.2658327 47.2205,59.3915 C47.4761679,59.5171673 47.6971657,59.6796657 47.8835,59.879 C48.0698343,60.0783343 48.2149995,60.3101653 48.319,60.5745 C48.4230005,60.8388347 48.475,61.1226652 48.475,61.426 C48.475,61.9373359 48.3688344,62.357665 48.1565,62.687 C47.9441656,63.016335 47.666835,63.278499 47.3245,63.4735 C46.982165,63.668501 46.5965021,63.8049996 46.1675,63.883 C45.7384979,63.9610004 45.3116688,64 44.887,64 L42.144,64 L42.144,54.796 Z M43.236,58.696 L44.744,58.696 C45.0040013,58.696 45.2574988,58.6786668 45.5045,58.644 C45.7515012,58.6093332 45.9746657,58.5378339 46.174,58.4295 C46.3733343,58.3211661 46.5336661,58.169501 46.655,57.9745 C46.7763339,57.779499 46.837,57.5216683 46.837,57.201 C46.837,56.9149986 46.7806672,56.6831676 46.668,56.5055 C46.5553328,56.3278324 46.4058343,56.1870005 46.2195,56.083 C46.0331657,55.9789995 45.8208345,55.9075002 45.5825,55.8685 C45.3441655,55.8294998 45.1036679,55.81 44.861,55.81 L43.236,55.81 L43.236,58.696 Z M43.236,62.986 L45.082,62.986 C45.350668,62.986 45.6171653,62.9578336 45.8815,62.9015 C46.1458347,62.8451664 46.3841656,62.7541673 46.5965,62.6285 C46.8088344,62.5028327 46.9799994,62.3381677 47.11,62.1345 C47.2400007,61.9308323 47.305,61.6816681 47.305,61.387 C47.305,61.0663317 47.2421673,60.7976678 47.1165,60.581 C46.9908327,60.3643323 46.8261677,60.1910007 46.6225,60.061 C46.4188323,59.9309994 46.1848347,59.8400003 45.9205,59.788 C45.6561653,59.7359997 45.3853347,59.71 45.108,59.71 L43.236,59.71 L43.236,62.986 Z" id="B" fill="#707C86"></path>
                <path d="M79.592,56.694 C79.3146653,56.3213315 78.9723354,56.0418343 78.565,55.8555 C78.1576646,55.6691657 77.7330022,55.576 77.291,55.576 C76.7796641,55.576 76.3095021,55.679999 75.8805,55.888 C75.4514979,56.096001 75.0810016,56.3754982 74.769,56.7265 C74.4569984,57.0775018 74.2143342,57.484831 74.041,57.9485 C73.8676658,58.412169 73.781,58.8953308 73.781,59.398 C73.781,59.935336 73.8676658,60.435831 74.041,60.8995 C74.2143342,61.363169 74.4548318,61.766165 74.7625,62.1085 C75.0701682,62.450835 75.4384979,62.7216657 75.8675,62.921 C76.2965021,63.1203343 76.7709974,63.22 77.291,63.22 C77.8543361,63.22 78.3569978,63.1095011 78.799,62.8885 C79.2410022,62.6674989 79.626665,62.3490021 79.956,61.933 L80.775,62.622 C80.3589979,63.1766694 79.8585029,63.5839987 79.2735,63.844 C78.6884971,64.1040013 78.0276703,64.234 77.291,64.234 C76.63233,64.234 76.0170029,64.1126679 75.445,63.87 C74.8729971,63.6273321 74.3768354,63.2915021 73.9565,62.8625 C73.5361646,62.4334979 73.2068345,61.9243363 72.9685,61.335 C72.7301655,60.7456637 72.611,60.1000035 72.611,59.398 C72.611,58.7219966 72.7258322,58.0893363 72.9555,57.5 C73.1851678,56.9106637 73.5079979,56.3993355 73.924,55.966 C74.3400021,55.5326645 74.8339971,55.1903346 75.406,54.939 C75.9780029,54.6876654 76.6063299,54.562 77.291,54.562 C77.9150031,54.562 78.5151638,54.6746655 79.0915,54.9 C79.6678362,55.1253345 80.150998,55.4936641 80.541,56.005 L79.592,56.694 Z" id="C" fill="#707C86"></path>
                <rect id="Rectangle-2-Copy-26" fill="#14B2E2" x="12" y="0" width="12" height="47"></rect>
                <rect id="Rectangle-2-Copy-33" fill="#96D5E8" x="0" y="11" width="12" height="36"></rect>
                <rect id="Rectangle-2-Copy-34" fill="#96D5E8" x="32" y="35" width="12" height="12"></rect>
                <rect id="Rectangle-2-Copy-35" fill="#96D5E8" x="64" y="31" width="12" height="16"></rect>
                <rect id="Rectangle-2-Copy-31" fill="#14B2E2" x="44" y="15" width="12" height="32"></rect>
                <rect id="Rectangle-2-Copy-32" fill="#14B2E2" x="76" y="26" width="12" height="21"></rect>
            </g>
        </g>
    </g>
</svg>