<?xml version="1.0" encoding="UTF-8" standalone="no"?>
<svg width="89px" height="69px" viewBox="0 0 89 69" version="1.1" xmlns="http://www.w3.org/2000/svg" xmlns:xlink="http://www.w3.org/1999/xlink">
    <!-- Generator: Sketch 3.7.2 (28276) - http://www.bohemiancoding.com/sketch -->
    <title>Group 3</title>
    <desc>Created with Sketch.</desc>
    <defs></defs>
    <g id="Page-1" stroke="none" stroke-width="1" fill="none" fill-rule="evenodd">
        <g id="SVG-icons-product" transform="translate(-639.000000, -177.000000)">
            <g id="Group-3" transform="translate(640.000000, 177.000000)">
                <rect id="Rectangle-2-Copy-26" fill="#14B2E2" x="3" y="29" width="13" height="23"></rect>
                <rect id="Rectangle-2-Copy-27" fill="#14B2E2" x="24" y="19" width="13" height="33"></rect>
                <rect id="Rectangle-2-Copy-28" fill="#14B2E2" x="45" y="9" width="13" height="43"></rect>
                <rect id="Rectangle-2-Copy-29" fill="#14B2E2" x="66" y="0" width="13" height="52"></rect>
                <g id="Group-2" transform="translate(0.000000, 58.000000)">
                    <path d="M33.62,4.372 L31.688,4.372 L31.688,7.648 C31.688,7.86266774 31.6926666,8.06099909 31.702,8.243 C31.7113334,8.42500091 31.7486663,8.58366599 31.814,8.719 C31.8793337,8.85433401 31.9773327,8.96166627 32.108,9.041 C32.2386673,9.12033373 32.4253321,9.16 32.668,9.16 C32.8266675,9.16 32.9899992,9.14133352 33.158,9.104 C33.3260008,9.06666648 33.4846659,9.01066704 33.634,8.936 L33.676,9.93 C33.4893324,10.0140004 33.2816678,10.0746665 33.053,10.112 C32.8243322,10.1493335 32.6073344,10.168 32.402,10.168 C32.009998,10.168 31.6973345,10.1166672 31.464,10.014 C31.2306655,9.91133282 31.0486673,9.7666676 30.918,9.58 C30.7873327,9.3933324 30.7010002,9.16233471 30.659,8.887 C30.6169998,8.61166529 30.596,8.30600168 30.596,7.97 L30.596,4.372 L29.168,4.372 L29.168,3.448 L30.596,3.448 L30.596,1.586 L31.688,1.586 L31.688,3.448 L33.62,3.448 L33.62,4.372 Z M35.062,3.448 L36.154,3.448 L36.154,10 L35.062,10 L35.062,3.448 Z M34.81,0.886 C34.81,0.67133226 34.8869992,0.48466746 35.041,0.326 C35.1950008,0.16733254 35.3839989,0.088 35.608,0.088 C35.8320011,0.088 36.0209992,0.16733254 36.175,0.326 C36.3290008,0.48466746 36.406,0.67133226 36.406,0.886 C36.406,1.1193345 36.3313341,1.31066592 36.182,1.46 C36.0326659,1.60933408 35.8413345,1.684 35.608,1.684 C35.3746655,1.684 35.1833341,1.60933408 35.034,1.46 C34.8846659,1.31066592 34.81,1.1193345 34.81,0.886 L34.81,0.886 Z M38.324,5.002 C38.324,4.70333184 38.3146668,4.42333464 38.296,4.162 C38.2773332,3.90066536 38.268,3.66266774 38.268,3.448 L39.304,3.448 C39.304,3.62533422 39.3086666,3.80266578 39.318,3.98 C39.3273334,4.15733422 39.332,4.3393324 39.332,4.526 L39.36,4.526 C39.434667,4.36733254 39.539666,4.21333408 39.675,4.064 C39.810334,3.91466592 39.9713324,3.78166725 40.158,3.665 C40.3446676,3.54833275 40.5546655,3.45500035 40.788,3.385 C41.0213345,3.31499965 41.273332,3.28 41.544,3.28 C41.8986684,3.28 42.1949988,3.32433289 42.433,3.413 C42.6710012,3.50166711 42.8693325,3.60899937 43.028,3.735 C43.1866675,3.86100063 43.3103329,3.99633261 43.399,4.141 C43.4876671,4.28566739 43.5599997,4.41399944 43.616,4.526 C43.8586679,4.13399804 44.1386651,3.82833443 44.456,3.609 C44.7733349,3.38966557 45.1839975,3.28 45.688,3.28 C46.154669,3.28 46.5466651,3.34299937 46.864,3.469 C47.1813349,3.59500063 47.437999,3.77699881 47.634,4.015 C47.830001,4.25300119 47.9699996,4.54233163 48.054,4.883 C48.1380004,5.22366837 48.18,5.6039979 48.18,6.024 L48.18,10 L47.088,10 L47.088,6.08 C47.088,5.85599888 47.0646669,5.63666774 47.018,5.422 C46.9713331,5.20733226 46.8873339,5.01600084 46.766,4.848 C46.6446661,4.67999916 46.4813344,4.54466718 46.276,4.442 C46.0706656,4.33933282 45.8093349,4.288 45.492,4.288 C45.2586655,4.288 45.0393344,4.3346662 44.834,4.428 C44.6286656,4.5213338 44.4490008,4.65199916 44.295,4.82 C44.1409992,4.98800084 44.0196671,5.19099881 43.931,5.429 C43.8423329,5.66700119 43.798,5.93066522 43.798,6.22 L43.798,10 L42.706,10 L42.706,6.29 C42.706,5.56199636 42.608001,5.04633485 42.412,4.743 C42.215999,4.43966515 41.8940022,4.288 41.446,4.288 C41.0913316,4.288 40.785668,4.34866606 40.529,4.47 C40.2723321,4.59133394 40.0623342,4.76399888 39.899,4.988 C39.7356659,5.21200112 39.6143337,5.47799846 39.535,5.786 C39.4556663,6.09400154 39.416,6.4346648 39.416,6.808 L39.416,10 L38.324,10 L38.324,5.002 Z M56.104,8.81 C55.711998,9.31400252 55.282669,9.66633233 54.816,9.867 C54.349331,10.0676677 53.8080031,10.168 53.192,10.168 C52.6786641,10.168 52.2166687,10.0770009 51.806,9.895 C51.3953313,9.71299909 51.0476681,9.46800154 50.763,9.16 C50.4783319,8.85199846 50.2590008,8.4880021 50.105,8.068 C49.9509992,7.6479979 49.874,7.20000238 49.874,6.724 C49.874,6.21999748 49.9579992,5.75566879 50.126,5.331 C50.2940008,4.90633121 50.5273318,4.54233485 50.826,4.239 C51.1246682,3.93566515 51.4793313,3.70000084 51.89,3.532 C52.3006687,3.36399916 52.7486642,3.28 53.234,3.28 C53.6913356,3.28 54.1113314,3.35699923 54.494,3.511 C54.8766686,3.66500077 55.2056653,3.88899853 55.481,4.183 C55.7563347,4.47700147 55.9686659,4.83633121 56.118,5.261 C56.2673341,5.68566879 56.342,6.16866396 56.342,6.71 L56.342,7.06 L51.05,7.06 C51.0686668,7.3400014 51.1363328,7.60833205 51.253,7.865 C51.3696673,8.12166795 51.5213324,8.34566571 51.708,8.537 C51.8946676,8.72833429 52.1139987,8.87999944 52.366,8.992 C52.6180013,9.10400056 52.8933318,9.16 53.192,9.16 C53.6680024,9.16 54.0693317,9.07600084 54.396,8.908 C54.7226683,8.73999916 55.0166654,8.4926683 55.278,8.166 L56.104,8.81 Z M55.166,6.136 C55.1473332,5.5759972 54.9653351,5.12800168 54.62,4.792 C54.2746649,4.45599832 53.7986697,4.288 53.192,4.288 C52.5853303,4.288 52.0953352,4.45599832 51.722,4.792 C51.3486648,5.12800168 51.124667,5.5759972 51.05,6.136 L55.166,6.136 Z" id="time" fill="#464E53"></path>
                    <path d="M0,6 L25,6" id="Line-Copy" stroke="#94A1AD" stroke-width="2" stroke-linecap="square"></path>
                    <path d="M60,6 L85,6" id="Line-Copy-3" stroke="#94A1AD" stroke-width="2" stroke-linecap="square"></path>
                    <polyline id="Path-5" stroke="#94A1AD" stroke-width="2" points="83 10.0167236 86.0273438 6.00836182 83 2"></polyline>
                </g>
            </g>
        </g>
    </g>
</svg>