<?xml version="1.0" encoding="UTF-8" standalone="no"?>
<svg width="81px" height="59px" viewBox="0 0 81 59" version="1.1" xmlns="http://www.w3.org/2000/svg" xmlns:xlink="http://www.w3.org/1999/xlink">
    <!-- Generator: Sketch 3.7.2 (28276) - http://www.bohemiancoding.com/sketch -->
    <title>Group 7</title>
    <desc>Created with Sketch.</desc>
    <defs></defs>
    <g id="Page-1" stroke="none" stroke-width="1" fill="none" fill-rule="evenodd">
        <g id="SVG-icons-product" transform="translate(-61.000000, -186.000000)">
            <g id="Group-7" transform="translate(61.000000, 186.000000)">
                <rect id="Rectangle-2" fill="#14B2E2" x="0" y="48" width="13" height="11" rx="1"></rect>
                <rect id="Rectangle-2-Copy" fill="#14B2E2" x="0" y="32" width="13" height="11" rx="1"></rect>
                <rect id="Rectangle-2-Copy-2" fill="#14B2E2" x="0" y="16" width="13" height="11" rx="1"></rect>
                <rect id="Rectangle-2-Copy-3" fill="#14B2E2" x="0" y="0" width="13" height="11" rx="1"></rect>
                <rect id="Rectangle-2-Copy-4" fill="#14B2E2" x="18" y="0" width="29" height="11" rx="1"></rect>
                <rect id="Rectangle-2-Copy-7" fill="#96D5E8" x="18" y="16" width="29" height="11" rx="1"></rect>
                <rect id="Rectangle-2-Copy-9" fill="#96D5E8" x="18" y="32" width="29" height="11" rx="1"></rect>
                <rect id="Rectangle-2-Copy-11" fill="#96D5E8" x="18" y="48" width="29" height="11" rx="1"></rect>
                <rect id="Rectangle-2-Copy-5" fill="#14B2E2" x="52" y="0" width="29" height="11" rx="1"></rect>
                <rect id="Rectangle-2-Copy-8" fill="#96D5E8" x="52" y="16" width="29" height="11" rx="1"></rect>
                <rect id="Rectangle-2-Copy-10" fill="#96D5E8" x="52" y="32" width="29" height="11" rx="1"></rect>
                <rect id="Rectangle-2-Copy-12" fill="#96D5E8" x="52" y="48" width="29" height="11" rx="1"></rect>
            </g>
        </g>
    </g>
</svg>